<?xml version="1.0" encoding="utf-8"?>
<!-- Generator: Adobe Illustrator 15.1.0, SVG Export Plug-In  -->
<!DOCTYPE svg PUBLIC "-//W3C//DTD SVG 1.1//EN" "http://www.w3.org/Graphics/SVG/1.1/DTD/svg11.dtd" [
	<!ENTITY ns_flows "http://ns.adobe.com/Flows/1.0/">
]>
<svg version="1.1"
	 xmlns="http://www.w3.org/2000/svg" xmlns:xlink="http://www.w3.org/1999/xlink" xmlns:a="http://ns.adobe.com/AdobeSVGViewerExtensions/3.0/"
	 x="0px" y="0px" width="567px" height="567px" viewBox="-113.385 -113.385 567 567"
	 enable-background="new -113.385 -113.385 567 567" xml:space="preserve">
<defs>
</defs>
<path fill-rule="evenodd" clip-rule="evenodd" d="M170.086,0C76.3,0,0,76.299,0,170.083c0,93.781,76.3,170.076,170.086,170.076
	c93.779,0,170.072-76.295,170.072-170.076C340.158,76.299,263.865,0,170.086,0z M244.108,166.885h16.294
	c-2.499,3.068-5.61,6.023-8.703,8.922c-2.133,2.003-4.986,4.294-7.64,5.985C244.161,181.733,244.14,173.47,244.108,166.885z
	 M244.082,162.488c-0.012-2.158-0.022-3.6-0.022-3.6s8.264-11.974,16.099-8.83c5.249,2.107,5.858,7.567,3.506,12.033
	c-0.07,0.133-0.159,0.264-0.232,0.396H244.082z M150.265,210.877c0.743,2.193,1.728,4.304,2.957,6.277
	c2.592,4.169,6.188,7.621,10.214,10.399c1.964,1.333,3.927,2.665,6.032,3.755c1.959,1.013,3.21,2.044,4.047,0.755
	c0.755-1.145-0.155-1.6-1.403-2.841c-2.929-2.888-5.649-6.023-7.584-9.653c-1.414-2.645-2.407-5.634-2.852-8.692h20.525
	c3.078,15.481,6.436,32.397,6.436,32.397s-0.06,0.024-0.086,0.024c-11.515,3.627-25.209,2.529-35.798-3.142
	c-7.671-4.126-14.655-10.918-18.513-18.834c-1.635-3.354-2.86-6.859-3.692-10.446H150.265z M161.432,206.481
	c0.082-2.178,0.471-4.326,1.23-6.35c2.035-5.386,5.893-9.952,10.96-12.723c0.304-0.146,3.546-1.675,3.573-1.627
	c0.033,0.107,1.908,9.521,4.132,20.699H161.432z M196.256,248.605c0,0,4.529-1.843,8.322-4.041c2.382-1.377,4.511-3.256,6.483-5.165
	c4.188-3.989,7.483-8.843,9.627-14.232c1.828-4.601,2.93-9.42,3.326-14.29h106.01c-3.571,13.996-8.941,27.277-15.839,39.594H196.67
	C196.413,249.287,196.256,248.605,196.256,248.605z M208.929,220.878c-1.508,7.989-6.127,17.234-14.23,20.332
	c-0.344-1.686-3.275-16.363-6.066-30.333h20.782C209.717,214.208,209.552,217.582,208.929,220.878z M187.755,206.481
	c-2.301-11.517-4.296-21.5-4.352-21.747c4.407-0.427,9.494,1.368,13.102,3.779c5.726,3.775,9.999,9.707,11.822,16.323
	c0.148,0.545,0.276,1.094,0.397,1.645H187.755z M173.708,167.267c0,0-2.675,1.168-3.67,1.696c-2.791,1.553-5.557,3.234-8.04,5.258
	c-3.506,2.825-6.511,6.285-8.697,10.265c-3.545,6.43-5.479,14.678-4.167,21.995h-19.396c-0.652-4.639-0.68-9.367-0.092-14.054
	c0.341-2.726,0.924-5.465,1.754-8.07c0.888-2.878,2.149-5.956,3.65-8.58c1.908-3.321,3.84-6.229,5.856-8.893h32.722
	C173.679,167.128,173.708,167.267,173.708,167.267z M168.166,139.867c1.21,6.296,3.317,16.604,4.555,22.621l-28.231,0
	c3.541-4.052,7.405-7.705,11.868-11.729C160.342,147.149,163.045,144.632,168.166,139.867z M178.905,162.487
	c-1.883-9.173-4.078-20.095-5.376-27.139c3.789-3.958,7.189-8.078,10.289-12.456h55.354c0,4.602,0,9.204,0,13.804
	c0,7.854,0,15.711,0,23.566c0,0.741,0,1.482,0,2.225L178.905,162.487z M166.349,78.906h21.724c-1.622,3.097-3.521,6.054-5.591,8.876
	c-4.338,5.957-8.422,10.451-14.316,17.301c-0.499-2.219-0.912-4.483-1.24-6.75C166.014,91.92,165.813,85.354,166.349,78.906z
	 M191.638,70.341c-0.433,1.418-0.945,2.804-1.508,4.168h-23.299c0.207-1.491,0.44-2.975,0.731-4.442
	c0.634-3.179,1.492-6.308,2.603-9.34c1.557-4.281,3.436-8.632,6.192-12.302c2.551-3.404,7.21-6.936,11.763-5.364
	c4.17,1.432,4.973,5.885,5.324,9.711C194,58.672,193.364,64.677,191.638,70.341z M191.295,110.724
	c5.205-9.817,8.246-20.795,9.423-31.818h106.875c8.092,12.165,14.612,25.458,19.273,39.591h-82.808c0-12.037,0-23.688,0-28.85
	c-1.28,0-4.887,0-4.887,0c0,2.287,0,4.574,0,6.863c0,5.768,0,11.539,0,17.309c0,1.56,0,3.119,0,4.678h-52.405
	C188.355,116,189.868,113.422,191.295,110.724z M272.547,150.522c-3.224-5.819-9.669-8.528-15.924-7.822
	c-5.499,0.616-9.132,3.721-12.564,6.631c0-5.94,0-16.057,0-26.438h84.188c3.776,12.636,6.079,25.899,6.703,39.596l-61.911-0.001
	C274.512,158.113,274.301,153.688,272.547,150.522z M170.086,335.132c-91.014,0-165.059-74.041-165.059-165.049
	C5.027,79.07,79.072,5.027,170.086,5.027c55.418,0,104.542,27.457,134.49,69.482h-103.45c0.791-10.217,0.816-20.771-1.038-30.844
	c-1.103-6.133-2.929-12.574-5.585-18.243c-1.649-3.516-4.177-6.738-7.573-8.777c-7.056-4.261-13.229,1.227-17.031,7.02
	c-2.064,3.146-3.914,6.586-5.48,10.019c-3.983,8.684-6.153,18.126-6.977,27.662c-0.384,4.396-0.37,8.786-0.09,13.165h-25.733
	l0-15.254l-16.986-16.986c0.847-1.21,1.349-2.68,1.349-4.265c0-4.12-3.356-7.472-7.481-7.472c-4.125,0-7.481,3.352-7.481,7.472
	c0,4.118,3.356,7.469,7.481,7.469c1.584,0,3.053-0.498,4.264-1.339l16.215,16.215l0,14.161H119.3
	c-1.048-5.983-6.272-10.549-12.556-10.549c-7.034,0-12.757,5.719-12.757,12.748c0,7.041,5.723,12.769,12.757,12.769
	c6.285,0,11.511-4.577,12.557-10.571h38.422c0.846,8.292,2.496,16.535,4.092,24.686c0.527,2.712,1.273,6.57,1.273,6.57
	s-0.947,1.033-1.067,1.169c-0.366,0.414-0.742,0.811-1.109,1.228c-0.744,0.808-1.49,1.614-2.239,2.419
	c-1.099,1.182-2.204,2.349-3.309,3.519h-47.716l-26.391-26.38l-16.509,0.001c-1.058-5.971-6.276-10.524-12.55-10.524
	c-7.035,0-12.757,5.719-12.757,12.749c0,7.031,5.723,12.751,12.757,12.751c6.292,0,11.522-4.582,12.559-10.578l14.685-0.001
	l26.391,26.378h45.398c-2.031,2.161-4.057,4.326-6.062,6.508c-2.965,3.246-5.866,6.538-8.644,9.958
	c-1.402,1.717-2.762,3.458-4.086,5.224c-4.072,5.467-7.71,11.512-10.529,17.904h-8.466L88.5,137.55H67.98l-7.469-7.952
	c1.209-1.327,1.954-3.084,1.954-5.016c0-4.12-3.356-7.471-7.481-7.471c-4.125,0-7.481,3.352-7.481,7.471
	c0,4.119,3.356,7.47,7.481,7.47c1.234,0,2.397-0.306,3.425-0.836l8.429,8.974h20.569l22.303,22.297l-10.44,0l-16.613-16.607H50.545
	c-0.671-3.445-3.706-6.054-7.34-6.054c-4.125,0-7.481,3.359-7.481,7.488c0,4.12,3.356,7.471,7.481,7.471
	c3.713,0,6.794-2.719,7.375-6.266h30.984l13.974,13.968H82.584l-18.003,18.561H43.776c-0.631-6.457-6.082-11.52-12.693-11.52
	c-7.035,0-12.759,5.729-12.759,12.772c0,7.03,5.724,12.75,12.759,12.75c5.946,0,10.939-4.093,12.347-9.604h23.02l17.993-18.562
	h35.681c-2.405,6.49-3.912,13.272-4.114,20.133c-0.186,6.496,0.571,13.085,2.179,19.465H90.319
	c-1.247-5.742-6.357-10.06-12.462-10.06c-7.035,0-12.758,5.729-12.758,12.77c0,7.028,5.723,12.747,12.758,12.747
	c6.461,0,11.802-4.828,12.633-11.062h16.691v7.357l-25.599,24.32H52.516c-0.628-3.491-3.684-6.151-7.356-6.151
	c-4.125,0-7.481,3.353-7.481,7.474c0,4.127,3.356,7.485,7.481,7.485c3.674,0,6.732-2.667,7.357-6.168h30.119l27.185-25.826v-8.491
	h9.627c1.589,4.979,3.698,9.781,6.3,14.252c5.772,9.915,14.365,18.038,24.936,22.611c2.695,1.145,5.473,2.039,8.318,2.73h-54.94
	l-16.4,16.4c-2.074-1.459-4.594-2.324-7.317-2.324c-7.029,0-12.748,5.728-12.748,12.768c0,7.029,5.718,12.748,12.748,12.748
	c7.035,0,12.758-5.719,12.758-12.748c0-2.729-0.868-5.254-2.33-7.331l15.116-15.115h16.066l-14.772,14.765v10.081l8.486,8.476
	c-0.935,1.251-1.495,2.797-1.495,4.475c0,4.119,3.356,7.471,7.481,7.471c4.125,0,7.481-3.352,7.481-7.471
	c0-4.131-3.356-7.492-7.481-7.492c-1.498,0-2.891,0.448-4.063,1.21l-7.771-7.763v-7.894l15.867-15.857h65.038
	c1.706,8.82,5.414,29.321,5.079,39.261c-0.279,8.695-4.408,15.733-9.856,19.469c-7.844,5.395-26.893,7.028-27.937-5.646
	c10.276-0.02,16.871-7.453,16.644-16.364c-0.26-9.787-10.228-18.605-22.01-14.586c-2.654,0.914-5.607,2.883-7.798,5.925
	c-3.466,4.82-4.542,10.819-3.567,17.983c0.848,6.227,4.87,12.801,9.008,16.346c5.297,4.535,9.599,6.456,17.356,7.384
	c3.274,0.373,7.574,0.193,11.991-0.801c11.395-2.595,20.526-10.053,22.679-24.64c1.6-10.979-2.484-33.408-4.717-44.33h114.042
	C282.752,302.915,230.113,335.132,170.086,335.132z M108.5,42.834c-2.67,0-4.842-2.167-4.842-4.83c0-2.665,2.172-4.833,4.842-4.833
	s4.842,2.168,4.842,4.833C113.342,40.667,111.17,42.834,108.5,42.834z M115.105,76.708c0,4.615-3.75,8.37-8.36,8.37
	c-4.608,0-8.358-3.755-8.358-8.37c0-4.604,3.75-8.349,8.358-8.349C111.354,68.359,115.105,72.104,115.105,76.708z M60.557,94.342
	c0,4.605-3.75,8.353-8.359,8.353c-4.609,0-8.358-3.747-8.358-8.353c0-4.604,3.749-8.35,8.358-8.35
	C56.807,85.992,60.557,89.738,60.557,94.342z M54.984,129.413c-2.67,0-4.842-2.167-4.842-4.831c0-2.665,2.172-4.832,4.842-4.832
	c2.669,0,4.842,2.167,4.842,4.832C59.826,127.246,57.654,129.413,54.984,129.413z M48.047,147.313c0,2.664-2.172,4.832-4.842,4.832
	s-4.842-2.167-4.842-4.832c0-2.673,2.172-4.849,4.842-4.849S48.047,144.64,48.047,147.313z M39.44,182.299
	c0,4.605-3.75,8.351-8.358,8.351c-4.61,0-8.36-3.745-8.36-8.351c0-4.617,3.75-8.373,8.36-8.373
	C35.691,173.926,39.44,177.682,39.44,182.299z M86.216,209.191c0,4.604-3.75,8.348-8.359,8.348c-4.609,0-8.359-3.744-8.359-8.348
	c0-4.615,3.75-8.37,8.359-8.37C82.466,200.821,86.216,204.576,86.216,209.191z M50.001,243.877c0,2.672-2.172,4.845-4.841,4.845
	c-2.67,0-4.842-2.173-4.842-4.845c0-2.665,2.172-4.832,4.842-4.832C47.829,239.045,50.001,241.212,50.001,243.877z M88.703,277.314
	c0,4.604-3.75,8.35-8.359,8.35c-4.604,0-8.349-3.746-8.349-8.35c0-4.614,3.745-8.368,8.349-8.368
	C84.953,268.946,88.703,272.7,88.703,277.314z M121.654,287.813c2.669,0,4.842,2.176,4.842,4.852c0,2.663-2.172,4.83-4.842,4.83
	c-2.67,0-4.842-2.167-4.842-4.83C116.812,289.988,118.984,287.813,121.654,287.813z M331.079,206.481h-106.9
	c-0.036-5.231-0.885-10.463-2.562-15.492c-3.478-10.423-11.3-19.612-21.261-23.53c-0.521-0.203-1.057-0.393-1.599-0.574h40.415
	c0,4.251,0,8.501,0,12.75c0,1.979,0,3.958,0,5.938c0,0.727-0.018,1.453,0,2.178c0.043,1.828,1.5,2.936,3.342,2.22
	c1.553-0.604,3.324-1.727,4.435-2.439c7.319-4.693,9.908-6.037,20.844-16.741c1.244-1.218,2.29-2.536,3.154-3.905h64.145
	c0.02,1.064,0.04,2.129,0.04,3.198C335.131,182.586,333.726,194.767,331.079,206.481z"/>
</svg>
